<svg width="56" height="55" viewBox="0 0 56 55" fill="none" xmlns="http://www.w3.org/2000/svg">
<path d="M27.6688 5.14868C22.1938 5.14891 16.8975 7.0854 12.7275 10.6117C8.5576 14.1379 5.78617 19.0239 4.90914 24.3952C4.03211 29.7666 5.10671 35.2728 7.94065 39.9287C10.7746 44.5847 15.183 48.0865 20.377 49.8075C21.5298 50.0081 21.9622 49.3206 21.9622 48.719C21.9622 48.1747 21.9333 46.37 21.9333 44.4508C16.1401 45.5106 14.6414 43.0472 14.1802 41.7581C13.6685 40.5044 12.8574 39.3934 11.8168 38.5211C11.0098 38.0914 9.85696 37.0315 11.788 37.0029C12.5253 37.0824 13.2325 37.3374 13.8497 37.7463C14.4668 38.1552 14.9756 38.7059 15.3331 39.3518C15.6485 39.9148 16.0725 40.4105 16.5809 40.8104C17.0894 41.2103 17.6722 41.5066 18.2961 41.6822C18.9199 41.8578 19.5725 41.9094 20.2164 41.8339C20.8603 41.7585 21.4829 41.5574 22.0485 41.2424C22.1483 40.0774 22.6708 38.9881 23.5185 38.1774C18.3882 37.6045 13.0274 35.6278 13.0274 26.8623C12.995 24.5847 13.8406 22.3811 15.3907 20.7034C14.6858 18.7239 14.7683 16.5516 15.6213 14.6305C15.6213 14.6305 17.5523 14.0289 21.9621 16.9795C25.735 15.9482 29.718 15.9482 33.4908 16.9795C37.9005 14.0003 39.8316 14.6305 39.8316 14.6305C40.6847 16.5516 40.7672 18.724 40.0622 20.7034C41.617 22.3782 42.4634 24.5838 42.4256 26.8623C42.4256 35.6565 37.0359 37.6045 31.9056 38.1774C32.4559 38.7317 32.8797 39.3972 33.1482 40.1288C33.4168 40.8603 33.5238 41.6407 33.462 42.417C33.462 45.4821 33.4332 47.9456 33.4332 48.7191C33.4332 49.3206 33.8655 50.0368 35.0184 49.8076C40.2032 48.0725 44.5989 44.5625 47.4208 39.9042C50.2426 35.2459 51.307 29.7425 50.4239 24.3763C49.5408 19.0102 46.7677 14.1306 42.5996 10.6086C38.4315 7.08663 33.1397 5.15151 27.6688 5.14868V5.14868Z" fill="#082859"/>
</svg>
