<svg width="55" height="55" viewBox="0 0 55 55" fill="none" xmlns="http://www.w3.org/2000/svg">
<path d="M46.9859 5.35896H8.52748C8.09517 5.35299 7.66592 5.43172 7.26423 5.59065C6.86254 5.74959 6.49628 5.98561 6.18637 6.28524C5.87647 6.58487 5.62899 6.94225 5.45806 7.33695C5.28713 7.73165 5.19611 8.15595 5.19019 8.58563V47.2605C5.19611 47.6902 5.28713 48.1145 5.45806 48.5092C5.62899 48.9039 5.87647 49.2612 6.18637 49.5609C6.49628 49.8605 6.86254 50.0965 7.26423 50.2555C7.66592 50.4144 8.09517 50.4931 8.52748 50.4872H46.9859C47.4182 50.4931 47.8474 50.4144 48.2491 50.2555C48.6508 50.0965 49.0171 49.8605 49.327 49.5609C49.6369 49.2612 49.8843 48.9039 50.0553 48.5092C50.2262 48.1145 50.3172 47.6902 50.3232 47.2605V8.58563C50.3172 8.15595 50.2262 7.73165 50.0553 7.33695C49.8843 6.94225 49.6369 6.58487 49.327 6.28524C49.0171 5.98561 48.6508 5.74959 48.2491 5.59065C47.8474 5.43172 47.4182 5.35299 46.9859 5.35896ZM18.8799 43.1313H12.0691V22.8236H18.8799V43.1313ZM15.4745 19.9805C14.5352 19.9805 13.6344 19.6096 12.9702 18.9495C12.306 18.2894 11.9329 17.3941 11.9329 16.4605C11.9329 15.5269 12.306 14.6316 12.9702 13.9715C13.6344 13.3114 14.5352 12.9405 15.4745 12.9405C15.9733 12.8843 16.4784 12.9334 16.9567 13.0846C17.4351 13.2359 17.8759 13.4858 18.2503 13.8182C18.6247 14.1505 18.9242 14.5576 19.1293 15.013C19.3345 15.4683 19.4405 15.9616 19.4405 16.4605C19.4405 16.9594 19.3345 17.4527 19.1293 17.908C18.9242 18.3634 18.6247 18.7705 18.2503 19.1028C17.8759 19.4351 17.4351 19.6851 16.9567 19.8364C16.4784 19.9876 15.9733 20.0367 15.4745 19.9805ZM43.4442 43.1313H36.6334V32.2328C36.6334 29.5026 35.6572 27.72 33.1826 27.72C32.4168 27.7256 31.671 27.9643 31.0459 28.4041C30.4208 28.8438 29.9463 29.4635 29.6864 30.1795C29.5087 30.7098 29.4318 31.2684 29.4594 31.8267V43.1087H22.6486C22.6486 43.1087 22.6486 24.6513 22.6486 22.801H29.4594V25.6667C30.0781 24.5996 30.978 23.7205 32.0621 23.1241C33.1462 22.5277 34.3735 22.2366 35.6118 22.282C40.1523 22.282 43.4442 25.1928 43.4442 31.4431V43.1313Z" fill="#082859"/>
</svg>
