<svg width="51" height="50" viewBox="0 0 51 50" fill="none" xmlns="http://www.w3.org/2000/svg">
<path d="M46.3007 12.1417C44.7276 12.82 43.0639 13.2685 41.3615 13.473C43.1575 12.4066 44.5035 10.7289 45.1496 8.75112C43.4618 9.74971 41.6142 10.4533 39.6871 10.8312C38.3991 9.44291 36.6838 8.51876 34.8103 8.20374C32.9368 7.88871 31.0111 8.20063 29.3352 9.09057C27.6593 9.98052 26.328 11.3981 25.5501 13.1211C24.7722 14.8441 24.5916 16.775 25.0368 18.6109C21.6242 18.4394 18.286 17.5562 15.2392 16.0188C12.1924 14.4814 9.50504 12.3241 7.35177 9.68718C6.59651 10.998 6.19966 12.4825 6.20067 13.993C6.19799 15.3958 6.54436 16.7775 7.20894 18.0151C7.87351 19.2527 8.83567 20.3077 10.0098 21.0863C8.64513 21.0494 7.30967 20.6854 6.11695 20.0254V20.1294C6.12718 22.0949 6.82016 23.9966 8.07866 25.5127C9.33717 27.0289 11.084 28.0664 13.0235 28.4499C12.2769 28.6758 11.5017 28.7948 10.7213 28.8036C10.1811 28.7973 9.64229 28.7486 9.10981 28.6579C9.66214 30.3487 10.731 31.8263 12.1677 32.8851C13.6044 33.9439 15.3374 34.5313 17.1256 34.5655C14.106 36.927 10.3779 38.2158 6.53553 38.2265C5.83595 38.2288 5.13692 38.1871 4.44263 38.1017C8.36563 40.6192 12.9373 41.9556 17.607 41.95C20.8294 41.9832 24.0262 41.378 27.0107 40.1695C29.9951 38.9611 32.7074 37.1738 34.989 34.9118C37.2706 32.6499 39.0759 29.9588 40.2994 26.9957C41.5229 24.0326 42.1401 20.8569 42.1149 17.6541C42.1149 17.3004 42.1149 16.926 42.1149 16.5516C43.7572 15.3343 45.1736 13.8421 46.3007 12.1417Z" fill="#082859"/>
</svg>
